<?xml version="1.0" encoding="UTF-8" standalone="no"?>
<svg
   xmlns:dc="http://purl.org/dc/elements/1.1/"
   xmlns:cc="http://creativecommons.org/ns#"
   xmlns:rdf="http://www.w3.org/1999/02/22-rdf-syntax-ns#"
   xmlns:svg="http://www.w3.org/2000/svg"
   xmlns="http://www.w3.org/2000/svg"
   id="svg2880"
   version="1.1"
   viewBox="0 0 210 297"
   height="297mm"
   width="210mm">
  <defs
     id="defs2874" />
  <metadata
     id="metadata2877">
    <rdf:RDF>
      <cc:Work
         rdf:about="">
        <dc:format>image/svg+xml</dc:format>
        <dc:type
           rdf:resource="http://purl.org/dc/dcmitype/StillImage" />
        <dc:title></dc:title>
      </cc:Work>
    </rdf:RDF>
  </metadata>
  <g
     id="layer1">
    <path
       id="path4126-1-9-1"
       d="m 151.64369,148.98318 c 0.0691,-0.11523 0.44835,-0.73298 0.84365,-1.38672 l 0.71802,-1.18801 -1.12024,-1.76577 c -0.61658,-0.97153 -1.14906,-1.81449 -1.18424,-1.87429 -0.0578,-0.0922 0.1589,-0.11523 0.9324,-0.11523 h 0.99692 l 0.63502,1.08567 c 0.34933,0.59701 0.6558,1.08567 0.68115,1.08567 0.0243,0 0.32629,-0.47944 0.66385,-1.06493 l 0.61658,-1.06493 0.97966,-0.0243 c 0.76873,-0.0243 0.96927,-9.3e-4 0.93353,0.0922 -0.0243,0.0578 -0.90244,1.51885 -1.95131,3.23898 l -1.90628,3.12771 -0.98192,0.0243 -0.98192,0.0243 z m -41.24739,-1.92932 c -1.11446,-0.2535 -2.17017,-1.0361 -2.60926,-1.93368 -0.44835,-0.91392 -0.35944,-2.08466 0.21995,-3.00113 0.31456,-0.49561 1.13406,-1.11793 1.81182,-1.37496 0.7042,-0.26725 1.79497,-0.31334 2.58245,-0.11523 l 0.60854,0.15769 0.0243,0.9877 0.0243,0.98771 -0.26968,-0.22723 c -0.14879,-0.12453 -0.48753,-0.28949 -0.75603,-0.36752 -1.44964,-0.42065 -2.80176,0.57858 -2.59042,1.91731 0.21227,1.3452 2.1166,1.9353 3.32753,1.03036 l 0.28221,-0.21105 v 0.95661 0.95657 l -0.45639,0.13585 c -0.65807,0.19691 -1.58157,0.23613 -2.20219,0.10351 z m 28.48448,0.0364 c -0.83443,-0.17749 -1.50288,-0.63271 -1.81647,-1.24069 -0.1961,-0.37924 -0.25027,-1.19661 -0.11523,-1.69036 0.16375,-0.5901 0.85169,-1.26479 1.47491,-1.45009 0.59466,-0.17628 1.65842,-0.17628 2.26178,10e-4 0.8667,0.2535 1.55784,1.17098 1.55784,2.06533 v 0.31456 h -1.82444 -1.82452 v 0.20499 c 0,0.53248 0.72724,0.92895 1.37989,0.75259 0.1868,-0.0574 0.38612,-0.14879 0.44604,-0.21995 0.0805,-0.10391 0.30648,-0.13019 0.92201,-0.13019 0.4483,0 0.81482,0.0243 0.81482,0.0461 0,0.12656 -0.27211,0.54167 -0.49096,0.75143 -0.55093,0.5244 -1.8295,0.79525 -2.78611,0.5924 z m 1.67206,-3.12605 c -0.17184,-0.33074 -0.4023,-0.45066 -0.87014,-0.45066 -0.39663,0 -0.71224,0.12575 -0.88743,0.35499 -0.2434,0.31578 -0.14758,0.35621 0.88974,0.35621 h 1.00153 z m -25.12433,2.98709 c -0.48405,-0.1775 -1.14442,-0.7699 -1.34185,-1.20519 -0.10391,-0.2248 -0.1589,-0.55784 -0.16132,-0.9197 -0.003,-0.9854 0.45987,-1.65952 1.43326,-2.09012 0.71916,-0.31819 1.91986,-0.19609 2.40609,0.24421 0.14515,0.13141 0.15566,0.12574 0.15566,-0.0922 v -0.23046 h 0.869 0.869 v 2.17191 2.17203 h -0.86322 c -0.85634,0 -0.86326,-0.002 -0.89091,-0.21914 l -0.0364,-0.21914 -0.3376,0.24097 c -0.29273,0.20984 -0.42757,0.24299 -1.04302,0.25917 -0.461,0.008 -0.83209,-0.0243 -1.06837,-0.11523 z m 2.23611,-1.47455 c 0.32386,-0.31011 0.39178,-0.64423 0.20984,-1.02918 -0.14758,-0.30769 -0.69959,-0.66042 -1.04071,-0.66042 -0.34003,0 -0.89435,0.35176 -1.04071,0.66042 -0.48175,1.01653 1.02227,1.84356 1.87134,1.02918 z m 5.65421,1.51959 c -0.11523,-0.0461 -0.31698,-0.16375 -0.45639,-0.26159 l -0.25108,-0.17993 v 0.22359 0.22359 h -0.86896 -0.869 v -3.51816 -3.51853 h 0.869 0.86896 v 1.57724 c 0,1.50895 0.008,1.57122 0.15444,1.43682 0.29637,-0.26847 0.81256,-0.42065 1.42522,-0.41835 1.73638,0.004 2.82399,1.47507 2.27784,3.07791 -0.17183,0.50479 -0.82404,1.11563 -1.39813,1.31176 -0.44256,0.15 -1.42598,0.17628 -1.75239,0.0461 z m 1.20915,-1.51959 c 0.5094,-0.48752 0.36995,-1.18614 -0.30203,-1.51117 -0.45178,-0.21914 -0.60279,-0.21914 -1.07532,-0.004 -0.66037,0.2996 -0.79521,1.02688 -0.2814,1.51865 0.4587,0.43796 1.1992,0.43796 1.65895,-0.003 z m 3.12213,-0.64654 v -2.17191 h 0.869 0.869 v 2.17191 2.17203 h -0.869 -0.869 z m 2.95378,0 v -2.17191 h 0.869 0.869 v 0.26523 0.26402 l 0.28221,-0.2155 c 0.85861,-0.65345 2.48687,-0.446 2.97116,0.37925 0.1589,0.27211 0.18195,0.47714 0.20742,1.97646 l 0.0364,1.67242 h -0.87612 -0.87591 v -1.37844 c 0,-1.23963 -0.0243,-1.40015 -0.17062,-1.59576 -0.21793,-0.27655 -0.6235,-0.36065 -0.99575,-0.20498 -0.52323,0.21914 -0.57167,0.37237 -0.57167,1.85185 v 1.32725 h -0.86899 -0.86896 z m 12.858,0.6085 v -1.55889 h -0.26038 -0.26038 v -0.60849 -0.60854 h 0.26038 0.26038 v -0.65232 -0.65233 h 0.869 0.869 v 0.65233 0.65232 h 0.52092 0.5221 v 0.60854 0.60849 h -0.5221 -0.52092 v 1.56386 1.56386 h -0.869 -0.869 z m 3.47507,-0.6085 v -2.17191 h 0.82521 0.82517 v 0.36308 0.36308 l 0.23855,-0.22359 c 0.35135,-0.32831 0.72724,-0.49327 1.27408,-0.55784 l 0.48639,-0.0578 v 0.7376 0.73877 l -0.43565,-0.0922 c -0.35256,-0.0578 -0.50944,-0.0578 -0.82751,0.0578 -0.58319,0.22359 -0.67655,0.461 -0.72034,1.84991 l -0.0364,1.15133 h -0.81482 -0.81482 z M 44.773755,142.13192 c -2.2943,-0.28464 -4.15561,-1.43601 -4.96122,-3.07026 -0.19015,-0.38733 -0.40683,-0.99579 -0.4806,-1.35309 -0.0807,-0.3562 -0.14405,-0.66037 -0.15675,-0.67189 -0.008,-0.008 -0.37343,0.24785 -0.80215,0.5751 -3.869557,2.97015 -7.852527,4.18165 -11.017325,3.35094 -1.170837,-0.30769 -2.198299,-0.99232 -3.101983,-2.06832 -2.090197,-2.48894 -2.33453,-6.30387 -0.715714,-11.17116 2.191041,-6.58535 7.662597,-13.92904 13.063154,-17.53296 2.302948,-1.53676 4.310278,-2.30201 6.081348,-2.31851 0.85401,-0.008 0.94967,0.008 1.49815,0.26847 0.60852,0.28706 1.19504,0.68806 1.19504,0.81482 0,0.0461 -0.4587,0.30768 -1.02113,0.59471 -2.77167,1.4132 -4.58193,2.90525 -7.703738,6.34951 -4.144203,4.57262 -7.024447,8.73939 -9.556861,13.82703 -1.467954,2.9486 -2.047898,4.72602 -2.047898,6.27512 0,1.69914 0.658083,2.5438 2.146785,2.7561 1.48766,0.21227 4.468979,-0.49674 6.568051,-1.56118 1.556236,-0.78947 3.799143,-2.32337 5.349731,-3.65899 0.55321,-0.476 0.58317,-0.5244 0.81483,-1.26915 0.55551,-1.78757 1.73407,-4.35927 2.85293,-6.22866 2.22734,-3.72134 5.82295,-8.51083 8.07185,-10.75249 2.56491,-2.55682 4.94059,-3.8406 6.86298,-3.70888 1.58044,0.11523 2.07533,0.75603 1.65271,2.16407 -0.69036,2.29822 -2.84948,4.94589 -10.86474,13.32074 -4.95892,5.18136 -5.13329,5.3912 -5.71428,6.87529 -0.74337,1.89912 -0.98194,2.8888 -0.98194,4.07842 -1.1e-4,0.82404 0.13601,1.39902 0.4587,1.92815 0.24781,0.40682 0.62236,0.57858 1.24253,0.57162 2.36795,-0.0364 7.238,-3.2201 13.63975,-8.94187 1.17637,-1.05106 2.3328,-2.23842 4.26523,-4.37839 3.36233,-3.72363 11.86671,-14.85989 16.15131,-21.14997 1.04878,-1.54101 1.15492,-1.66631 1.48893,-1.77212 0.30655,-0.10351 0.40683,-0.10351 0.67422,0.0243 0.33308,0.13949 0.52209,0.461 0.42758,0.72494 -0.0348,0.0922 -0.66039,1.28665 -1.39881,2.67221 -4.27329,8.01768 -7.60935,13.52153 -11.28978,18.62655 -4.40616,6.1119 -9.46248,10.94037 -14.24055,13.59908 -3.15202,1.75401 -6.04932,2.51376 -8.4515,2.21606 z m 6.46986,-20.07756 c 0.81137,-0.82982 2.15578,-2.32806 2.98835,-3.33121 0.83211,-1.00384 1.70677,-2.05066 1.94279,-2.32786 1.55129,-1.82233 -1.8696,1.20483 -3.70775,3.281 -1.23572,1.39566 -2.82308,3.42132 -3.40648,4.34701 -0.15445,0.24421 -0.13601,0.23733 0.27199,-0.10351 0.24089,-0.19933 1.09949,-1.03958 1.91109,-1.86847 z m 76.573605,19.48148 c -0.73299,-0.73299 0.26402,-1.76242 1.22467,-1.26555 0.5071,0.2628 0.59006,0.85399 0.17871,1.26555 -0.2155,0.21429 -0.32264,0.2535 -0.70189,0.2535 -0.37925,0 -0.48635,-0.0461 -0.7019,-0.2535 z m 5.25733,-2.00513 c -0.96696,-0.20984 -2.74014,-1.79953 -3.05316,-2.73642 -0.0691,-0.20984 -0.0578,-0.34448 0.11523,-0.69494 0.17184,-0.38855 1.32956,-2.45129 1.65617,-2.94985 0.12897,-0.1961 0.12897,-0.1961 -0.2996,-0.15445 -0.82748,0.0805 -2.30514,-0.36065 -3.25399,-0.96579 -0.2721,-0.17386 -0.514,-0.31577 -0.53592,-0.31577 -0.0243,0 -0.40799,0.2535 -0.8563,0.56357 -1.1018,0.76299 -1.62883,0.99923 -2.23498,1.0004 -1.74269,0.003 -3.96162,-1.29555 -4.58213,-2.68167 l -0.16577,-0.37116 -0.46678,0.5394 c -0.71338,0.82404 -1.77794,1.70399 -2.4817,2.0517 -0.58432,0.28909 -0.67537,0.3089 -1.17717,0.26038 -1.11332,-0.11523 -2.4151,-0.68806 -3.15407,-1.40746 -0.54858,-0.53475 -0.68346,-0.90009 -0.62928,-1.72947 0.0364,-0.51862 0.12089,-0.80099 0.53249,-1.71677 0.27089,-0.60275 0.49209,-1.11333 0.49209,-1.13407 0,-0.0243 -0.22035,0.002 -0.48635,0.0578 -0.34933,0.0578 -0.6892,0.0578 -1.1946,-0.008 -0.6892,-0.1035 -0.70994,-0.1035 -0.83669,0.0922 -0.48639,0.71685 -2.69344,2.97415 -3.90946,3.99699 -1.54219,1.29705 -2.92879,2.16799 -3.90368,2.45219 -1.72267,0.50252 -4.824625,-0.27777 -6.254895,-1.57179 -0.78834,-0.71341 -1.08685,-1.35191 -1.15837,-2.48157 l -0.0243,-0.32507 -0.85173,0.6915 c -2.63809,2.14252 -4.23846,2.73019 -6.27197,2.30327 -1.28646,-0.26968 -2.47814,-1.11102 -2.74139,-1.93575 -0.0574,-0.17749 -0.1314,-0.35377 -0.16367,-0.38935 -0.0348,-0.0364 -0.31694,0.23612 -0.63157,0.60849 -0.8229,0.97506 -2.01782,2.09469 -2.44045,2.28662 -0.20285,0.0922 -0.56127,0.16577 -0.80791,0.16698 -0.87821,0.004 -2.51755,-0.55323 -3.23037,-1.09606 -0.15906,-0.12089 -0.34117,-0.20054 -0.40684,-0.17507 -0.0691,0.0243 -0.48637,0.30081 -0.93815,0.61315 -1.2046,0.83325 -1.5144,0.94966 -2.38547,0.89091 -1.74674,-0.11766 -3.62315,-1.26596 -4.29357,-2.62798 -0.25011,-0.5094 -0.27085,-0.60854 -0.2328,-1.19815 0.0348,-0.53245 0.1037,-0.76756 0.40453,-1.36918 0.97156,-1.94359 3.35023,-4.4918 4.73348,-5.06969 1.1456,-0.47944 3.31048,0.36752 4.02066,1.57215 0.0922,0.15323 0.11527,0.15566 0.26046,0.0243 0.26624,-0.23288 0.70418,-0.42295 0.96234,-0.42295 0.34691,0.002 1.62355,0.461 2.03269,0.73298 0.50019,0.33074 0.70649,0.69955 0.65002,1.15623 -0.0576,0.461 -0.23398,0.80669 -1.15459,2.27412 -0.88974,1.41713 -1.06722,1.75817 -1.06722,2.04423 0,0.34245 0.31807,0.28221 1.05339,-0.19933 0.74222,-0.48635 2.47688,-1.83665 3.56702,-2.7758 0.73185,-0.63045 0.77451,-0.6892 1.44252,-1.96308 1.67674,-3.19847 5.04672,-8.44561 7.66924,-11.94154 2.7082,-3.61002 5.773075,-6.91911 7.800685,-8.42208 0.79869,-0.5924 1.89576,-1.1764 2.57412,-1.37104 0.61085,-0.17507 1.83722,-0.13019 2.69514,0.10351 1.09837,0.29151 2.14045,0.9497 2.44725,1.54299 0.65811,1.27413 -0.839,3.68022 -5.24072,8.41448 -3.62271,3.89713 -9.141715,8.86881 -13.466735,12.13137 -1.03727,0.78255 -1.29361,1.02458 -1.63336,1.53608 -0.87361,1.31775 -1.28112,2.46949 -0.96696,2.73015 0.11968,0.10391 0.23046,0.0922 0.72724,-0.0805 0.76756,-0.24906 2.99296,-1.33032 5.31976,-2.58266 l 1.86803,-1.00614 0.47826,-0.6558 c 0.63159,-0.86783 1.93797,-2.16176 2.55306,-2.52928 0.43448,-0.25917 0.562405,-0.29273 1.076445,-0.2895 1.03724,0.008 2.78987,0.63502 3.89596,1.38624 0.58545,0.39866 1.29851,1.12833 1.42413,1.45874 0.12574,0.33316 0.11523,0.82173 -0.0578,1.30615 -0.27211,0.80677 -2.16868,2.46233 -2.97751,2.59902 -0.74338,0.12575 -1.78373,-0.27533 -1.95188,-0.75372 -0.1314,-0.37561 0.0805,-0.7019 0.99345,-1.54647 0.9243,-0.8517 1.47325,-1.52719 1.47325,-1.80908 0,-0.25917 -0.24219,-0.46678 -0.46562,-0.39987 -0.99462,0.30081 -3.215925,3.46916 -3.661965,5.22143 -0.12211,0.48061 -0.12211,0.57049 -0.008,0.85056 0.14313,0.34003 0.53936,0.56706 0.988835,0.56706 0.39542,0 1.47038,-0.30445 2.28063,-0.64542 1.93065,-0.81251 4.78521,-2.67208 6.39079,-4.16183 l 0.61796,-0.57397 -0.31699,-0.33316 c -0.53475,-0.5624 -0.66728,-1.327 -0.34569,-1.99186 0.23976,-0.49444 0.96005,-1.27688 1.42684,-1.55096 0.8563,-0.50136 1.85035,-0.30769 2.20761,0.42991 0.33315,0.6892 0.18679,1.53361 -0.38612,2.21222 -0.31456,0.37439 -0.19489,0.47022 0.52439,0.42069 0.57167,-0.0461 1.74043,-0.51979 2.10989,-0.86669 0.51518,-0.48405 2.11947,0.0364 2.62289,0.85169 0.35499,0.57397 0.17062,1.1145 -1.0188,2.99663 -0.59702,0.94279 -0.98079,1.67323 -0.98079,1.86075 0,0.20984 0.25916,0.30203 0.55783,0.20054 0.84478,-0.28949 2.39477,-1.60659 5.13236,-4.36064 2.62171,-2.6374 2.967,-2.94755 3.68252,-3.30678 0.41948,-0.21106 0.53588,-0.23046 1.12946,-0.19246 0.37561,0.0243 0.87704,0.12575 1.15986,0.23289 0.70189,0.26847 1.49989,0.82521 1.72773,1.20462 0.11523,0.1775 0.20296,0.33518 0.21307,0.35054 0.008,0.008 0.17507,-0.0809 0.36308,-0.19932 0.50022,-0.33074 0.85517,-0.36066 1.55363,-0.13141 1.3921,0.4587 1.94347,0.91392 1.93979,1.60267 -0.002,0.46101 -0.1682,0.80908 -1.12602,2.35103 -1.19953,1.93206 -1.33817,2.29935 -0.869,2.29935 0.33073,0 1.85646,-1.08337 3.86276,-2.74435 0.96696,-0.80099 1.05454,-0.90126 1.97723,-2.28289 4.25632,-6.37143 9.72916,-13.81126 12.79048,-17.38728 1.04532,-1.22003 2.92552,-3.14175 3.54271,-3.61933 0.82056,-0.63506 1.31823,-0.81946 2.21189,-0.82177 1.55541,-0.002 2.87551,0.77103 3.58375,2.0999 0.37318,0.69955 0.3562,1.09489 -0.0809,1.96158 -0.69724,1.38875 -2.27019,3.15558 -7.56311,8.49191 l -4.03977,4.07301 0.39057,-0.0578 c 0.2155,-0.0364 0.8206,-0.0809 1.34557,-0.11523 l 0.95427,-0.0578 0.7572,-0.58549 c 1.06263,-0.8206 1.44822,-0.99575 2.19888,-0.99575 0.77908,0 1.26741,0.23531 2.02749,0.97732 l 0.55549,0.54283 2.87821,-8.1e-4 c 7.41383,-0.002 17.09116,-0.41834 27.42113,-1.17741 4.62571,-0.34003 5.08036,-0.31213 7.14408,0.42413 1.75356,0.62697 2.66266,1.35386 2.33662,1.86811 -0.16132,0.2535 -1.41555,0.29393 -7.52603,0.24097 -16.3794,-0.1407 -24.37505,-0.1589 -27.93106,-0.0578 -4.98737,0.13464 -4.76135,0.11523 -5.41841,0.64198 -0.84708,0.68919 -3.30954,3.21436 -4.38275,4.49442 -1.61954,1.93187 -2.70137,3.6786 -2.70727,4.37103 -0.008,0.65119 0.41491,0.74799 1.30756,0.30324 0.72029,-0.36065 3.02106,-1.90777 4.94565,-3.32696 2.49059,-1.83677 3.06039,-2.13354 3.51885,-1.83318 0.26401,0.17305 0.28463,0.50479 0.0578,0.87592 -0.24097,0.38733 -2.19705,2.33658 -3.10543,3.09415 -1.54773,1.29091 -3.43633,2.521 -4.5499,2.96344 -0.69611,0.27656 -2.17308,0.26847 -2.89984,-0.008 -1.0845,-0.42296 -1.55266,-1.25589 -1.56697,-2.7853 -0.008,-0.50131 0.0243,-1.07759 0.0578,-1.281 l 0.0691,-0.36874 -1.26511,1.09029 c -1.345,1.15861 -2.75465,2.23829 -3.55665,2.72364 -0.86208,0.52205 -1.4969,0.4633 -2.29017,-0.21672 l -0.35257,-0.30081 -0.42526,0.71916 c -0.79525,1.34751 -1.50276,2.74519 -2.22827,4.40155 -1.12141,2.55985 -1.25039,2.74378 -1.83645,2.61622 z m -58.781135,-8.24612 c 0.35381,-0.18073 1.05224,-0.77908 1.61604,-1.38438 0.95197,-1.02345 2.18298,-3.08644 2.28245,-3.82715 0.10371,-0.72263 -0.42067,-0.82864 -1.2702,-0.26038 -1.55427,1.03841 -4.21335,4.94302 -3.74774,5.50393 0.15558,0.18679 0.72263,0.17062 1.11909,-0.0364 z m 50.146945,-0.0805 c 0.97732,-0.62006 2.24627,-2.09064 3.10083,-3.59341 1.01075,-1.7773 0.88169,-2.57218 -0.3182,-1.97197 -0.98536,0.49213 -2.82039,2.65688 -3.6961,4.36031 -0.56358,1.09606 -0.52205,1.45008 0.17184,1.45008 0.24218,0 0.48061,-0.0805 0.74337,-0.24542 z m 15.46351,-1.84146 c 1.28665,-0.43335 3.59781,-1.59762 5.07842,-2.55804 l 0.69498,-0.45061 0.63041,-1.25338 c 0.3469,-0.6892 0.95888,-1.742 1.36057,-2.33926 0.60275,-0.89665 0.70415,-1.09602 0.58545,-1.14098 -0.0809,-0.0364 -0.37925,-0.12089 -0.66498,-0.20296 -0.28707,-0.0809 -0.65807,-0.22723 -0.82404,-0.32265 l -0.30203,-0.17386 -2.08728,2.11543 c -2.22011,2.25039 -3.29898,3.48105 -4.51246,5.14736 -0.97849,1.34265 -0.98427,1.35547 -0.7019,1.35547 0.12211,0 0.4564,-0.0809 0.74338,-0.17507 z m -45.621415,-7.80922 c 2.28625,-2.03602 6.837155,-6.59445 9.203865,-9.21847 1.73832,-1.92758 3.42513,-4.15391 3.84073,-5.069 0.20054,-0.44256 0.21307,-0.86552 0.0364,-1.0188 -0.20055,-0.16577 -0.70881,0.12777 -1.60866,0.92662 -1.75356,1.55864 -6.250455,6.85422 -11.414955,13.44232 -1.00383,1.27999 -1.84045,2.37338 -1.86006,2.4295 -0.0461,0.11968 0.52558,-0.34933 1.81017,-1.49217 z m 54.088005,-4.57545 c 6.29696,-6.61107 9.24463,-10.37631 8.12338,-10.37631 -0.55093,0 -3.17045,2.6541 -6.29506,6.37858 -2.14433,2.55626 -6.94066,8.75067 -7.47185,9.65032 -0.17871,0.30081 3.09771,-2.97994 5.64353,-5.65259 z m -84.662415,19.249 v -0.52206 l 32.25338,0.0243 32.253395,0.0243 v 0.47827 0.4783 l -32.253395,0.0243 -32.25338,0.0243 z m 73.933065,0 v -0.52093 h 9.77379 9.77363 v 0.52093 0.52096 h -9.77363 -9.77379 z"
       style="fill:#5d0000;fill-opacity:1;stroke-width:0.08687786" />
  </g>
</svg>
